<svg xmlns="http://www.w3.org/2000/svg" width="1200" height="1080" viewBox="0 0 1200 1080" role="img"><rect width="100%" height="100%" fill="#fff"/><defs><marker id="arrow" markerWidth="8" markerHeight="8" refX="7" refY="4" orient="auto"><path d="M0 0 L8 4 L0 8" fill="#387b70"/></marker></defs><style>text{font-family:Arial,sans-serif;fill:#17232b} .wire{fill:none;stroke:#17232b;stroke-width:2.5;stroke-linecap:round;stroke-linejoin:round} .flow{fill:none;stroke:#387b70;stroke-width:3;marker-end:url(#arrow)} .muted{fill:#52616a} .guide{stroke:#c5cfd5;stroke-width:1;stroke-dasharray:5 6}</style><text x="55" y="62" font-size="30" font-weight="bold">BUCK / POWER STAGE</text><text x="55" y="100" font-size="20" class="muted">Ideal switches · positive iL: SW → L → output</text><text x="55" y="152" font-size="19" font-weight="bold">01  SYNCHRONOUS BUCK</text><path class="wire" d="M160 210 L300 210"/><path class="wire" d="M300 210 L325 210"/><path class="wire" d="M375 210 L400 210"/><path class="wire" d="M325 210 L375 185"/><circle cx="325" cy="210" r="4" fill="#17232b"/><circle cx="375" cy="210" r="4" fill="#17232b"/><path class="wire" d="M400 210 L500 210"/><path class="wire" d="M500 210 L580 210"/><path class="wire" d="M580 210 a16 19 0 0 1 32 0 a16 19 0 0 1 32 0 a16 19 0 0 1 32 0 a16 19 0 0 1 32 0 "/><path class="wire" d="M708 210 L1000 210"/><path class="wire" d="M160 210 L160 282"/><circle cx="160" cy="315" r="33" class="wire"/><path class="wire" d="M160 348 L160 440"/><path class="wire" d="M160 440 L1000 440"/><text x="148" y="307" font-size="23" >+</text><text x="150" y="340" font-size="23" >−</text><text x="73" y="320" font-size="25" >Vin</text><path class="wire" d="M500 210 L500 275"/><path class="wire" d="M500 275 L500 300"/><path class="wire" d="M500 350 L500 375"/><path class="wire" d="M500 300 L475 350"/><circle cx="500" cy="300" r="4" fill="#17232b"/><circle cx="500" cy="350" r="4" fill="#17232b"/><path class="wire" d="M500 375 L500 440"/><circle cx="500" cy="210" r="4" fill="#17232b"/><path class="wire" d="M805 260 L805 305"/><path class="wire" d="M783 305 L827 305"/><path class="wire" d="M783 319 L827 319"/><path class="wire" d="M805 319 L805 410"/><path class="wire" d="M805 210 L805 260"/><path class="wire" d="M805 410 L805 440"/><path class="wire" d="M1000 260 l0 18 l-10 8 l20 16 l-20 16 l20 16 l-20 16 l20 16 l-10 8 l0 36"/><path class="wire" d="M1000 210 L1000 260"/><path class="wire" d="M1000 410 L1000 440"/><circle cx="805" cy="210" r="4" fill="#17232b"/><circle cx="805" cy="440" r="4" fill="#17232b"/><path class="wire" d="M700 440 L700 454"/><path class="wire" d="M682 454 L718 454"/><path class="wire" d="M688 462 L712 462"/><path class="wire" d="M694 470 L706 470"/><text x="320" y="165" font-size="23" >QH</text><text x="410" y="335" font-size="23" >QL</text><text x="466" y="192" font-size="23" >SW</text><text x="630" y="180" font-size="23" >L</text><text x="842" y="335" font-size="23" >C</text><text x="1040" y="335" font-size="23" >R</text><text x="1028" y="224" font-size="22" >+ Vo</text><text x="1030" y="444" font-size="24" >−</text><path class="flow" d="M555 245 L740 245"/><text x="640" y="278" font-size="21" >iL</text><text x="555" y="177" font-size="22" >+</text><text x="722" y="177" font-size="22" >−</text><text x="615" y="145" font-size="21" >vL</text><path class="flow" d="M785 278 L785 365"/><text x="735" y="339" font-size="19" >iC</text><path class="flow" d="M1056 266 L1056 386"/><text x="1080" y="332" font-size="19" >Iload</text><text x="55" y="520" font-size="21" font-weight="bold">02  ON · QH closed / QL open</text><text x="650" y="520" font-size="21" font-weight="bold">03  OFF · QH open / QL closed</text><path class="wire" d="M235 615 L270 615"/><path class="wire" d="M270 615 a16 19 0 0 1 32 0 a16 19 0 0 1 32 0 a16 19 0 0 1 32 0 a16 19 0 0 1 32 0 "/><path class="wire" d="M398 615 L510 615"/><path class="wire" d="M415 650 L415 695"/><path class="wire" d="M393 695 L437 695"/><path class="wire" d="M393 709 L437 709"/><path class="wire" d="M415 709 L415 800"/><path class="wire" d="M415 615 L415 650"/><path class="wire" d="M415 800 L415 835"/><path class="wire" d="M510 655 l0 18 l-10 8 l20 16 l-20 16 l20 16 l-20 16 l20 16 l-10 8 l0 36"/><path class="wire" d="M510 615 L510 655"/><path class="wire" d="M510 805 L510 835"/><path class="wire" d="M180 835 L510 835"/><path class="wire" d="M180 615 L235 615"/><path class="wire" d="M180 615 L180 683"/><circle cx="180" cy="718" r="35" class="wire"/><path class="wire" d="M180 753 L180 835"/><text x="75" y="725" font-size="20" >Vin</text><text x="168" y="708" font-size="22" >+</text><text x="169" y="740" font-size="22" >−</text><text x="195" y="593" font-size="18" >via QH</text><path class="flow" d="M237 645 L396 645"/><text x="300" y="676" font-size="19" >iL > 0</text><path class="flow" d="M480 864 L203 864"/><text x="285" y="595" font-size="20" >+  vL  −</text><text x="440" y="727" font-size="19" >C</text><text x="535" y="727" font-size="19" >R</text><text x="95" y="945" font-size="23" >vSW = Vin</text><text x="95" y="984" font-size="23" >vL = Vin − Vo</text><text x="95" y="1023" font-size="23" >diL/dt = (Vin − Vo)/L</text><path class="wire" d="M825 615 L860 615"/><path class="wire" d="M860 615 a16 19 0 0 1 32 0 a16 19 0 0 1 32 0 a16 19 0 0 1 32 0 a16 19 0 0 1 32 0 "/><path class="wire" d="M988 615 L1100 615"/><path class="wire" d="M1005 650 L1005 695"/><path class="wire" d="M983 695 L1027 695"/><path class="wire" d="M983 709 L1027 709"/><path class="wire" d="M1005 709 L1005 800"/><path class="wire" d="M1005 615 L1005 650"/><path class="wire" d="M1005 800 L1005 835"/><path class="wire" d="M1100 655 l0 18 l-10 8 l20 16 l-20 16 l20 16 l-20 16 l20 16 l-10 8 l0 36"/><path class="wire" d="M1100 615 L1100 655"/><path class="wire" d="M1100 805 L1100 835"/><path class="wire" d="M770 835 L1100 835"/><path class="wire" d="M770 835 L770 615"/><path class="wire" d="M770 615 L825 615"/><path class="flow" d="M745 795 L745 650"/><text x="668" y="728" font-size="18" >via QL</text><path class="flow" d="M827 645 L986 645"/><text x="890" y="676" font-size="19" >iL > 0</text><path class="flow" d="M1070 864 L793 864"/><text x="875" y="595" font-size="20" >+  vL  −</text><text x="1030" y="727" font-size="19" >C</text><text x="1125" y="727" font-size="19" >R</text><text x="685" y="945" font-size="23" >vSW = 0</text><text x="685" y="984" font-size="23" >vL = −Vo</text><text x="685" y="1023" font-size="23" >diL/dt = −Vo/L</text></svg>